<svg width="74" height="75" viewBox="0 0 74 75" fill="none" xmlns="http://www.w3.org/2000/svg">
<g id="&#240;&#159;&#166;&#134; icon &#34;arrow ios back&#34;">
<path id="Vector" d="M42.3045 58.8956C41.8476 58.8971 41.396 58.7963 40.9832 58.6004C40.5703 58.4046 40.2066 58.1187 39.9187 57.7639L25.1448 39.4118C24.6949 38.8645 24.449 38.178 24.449 37.4696C24.449 36.7611 24.6949 36.0746 25.1448 35.5273L40.4387 17.1753C40.9579 16.5506 41.7039 16.1578 42.5127 16.0833C43.3216 16.0087 44.1269 16.2585 44.7515 16.7776C45.3762 17.2968 45.769 18.0429 45.8436 18.8517C45.9181 19.6604 45.6684 20.4657 45.1492 21.0904L31.4765 37.4849L44.6904 53.8794C45.0644 54.3283 45.302 54.875 45.375 55.4548C45.4481 56.0346 45.3535 56.6231 45.1025 57.1508C44.8515 57.6785 44.4546 58.1233 43.9588 58.4325C43.4629 58.7417 42.8888 58.9024 42.3045 58.8956V58.8956Z" fill="#89A593"/>
</g>
</svg>
