<svg width="74" height="75" viewBox="0 0 74 75" fill="none" xmlns="http://www.w3.org/2000/svg">
<g id="&#240;&#159;&#166;&#134; icon &#34;arrow ios back&#34;">
<path id="Vector" d="M31.6957 16.0751C32.1527 16.0736 32.6042 16.1744 33.0171 16.3703C33.43 16.5661 33.7937 16.852 34.0816 17.2069L48.8554 35.5589C49.3053 36.1062 49.5513 36.7927 49.5513 37.5011C49.5513 38.2096 49.3053 38.8961 48.8554 39.4434L33.5616 57.7954C33.0424 58.4201 32.2963 58.8129 31.4875 58.8874C30.6787 58.962 29.8734 58.7122 29.2487 58.1931C28.6241 57.6739 28.2313 56.9278 28.1567 56.1191C28.0821 55.3103 28.3319 54.505 28.8511 53.8803L42.5238 37.4859L29.3099 21.0914C28.9359 20.6424 28.6983 20.0957 28.6252 19.5159C28.5522 18.9362 28.6468 18.3476 28.8977 17.8199C29.1487 17.2922 29.5456 16.8474 30.0415 16.5382C30.5374 16.229 31.1114 16.0683 31.6957 16.0751V16.0751Z" fill="#89A593"/>
</g>
</svg>
