<svg width="36" height="36" viewBox="0 0 36 36" fill="none" xmlns="http://www.w3.org/2000/svg">
<g id="icon/instagram">
<path id="vector" fill-rule="evenodd" clip-rule="evenodd" d="M17.509 4.37732C13.9424 4.37732 13.4959 4.3922 12.0951 4.45611C10.697 4.52002 9.74184 4.74239 8.90664 5.06719C8.03117 5.39637 7.23712 5.9129 6.58052 6.58176C5.91272 7.2376 5.39588 8.0311 5.06595 8.90701C4.7429 9.74221 4.51966 10.6982 4.45575 12.0964C4.39271 13.4962 4.37695 13.9418 4.37695 17.5094C4.37695 21.0769 4.39184 21.5226 4.45575 22.9233C4.51966 24.3214 4.74202 25.2766 5.06682 26.1118C5.396 26.9873 5.91253 27.7813 6.58139 28.4379C7.23725 29.1057 8.03074 29.6225 8.90664 29.9525C9.74184 30.2764 10.697 30.4988 12.0951 30.5627C13.4959 30.6266 13.9424 30.6415 17.509 30.6415C21.0757 30.6415 21.5222 30.6266 22.9229 30.5627C24.3211 30.4988 25.2762 30.2764 26.1114 29.9516C26.9869 29.6224 27.7809 29.1059 28.4375 28.437C29.1053 27.7812 29.6222 26.9877 29.9521 26.1118C30.276 25.2766 30.4984 24.3214 30.5623 22.9233C30.6262 21.5226 30.6411 21.0761 30.6411 17.5094C30.6411 13.9427 30.6262 13.4962 30.5623 12.0955C30.4984 10.6973 30.276 9.74221 29.9512 8.90701C29.6215 8.03072 29.1047 7.23689 28.4367 6.58088C27.7808 5.91309 26.9873 5.39624 26.1114 5.06632C25.2762 4.74327 24.3202 4.52002 22.9221 4.45611C21.5222 4.39308 21.0766 4.37732 17.509 4.37732ZM17.509 6.74372C21.0153 6.74372 21.4311 6.75685 22.8161 6.81989C24.0961 6.87854 24.7912 7.09128 25.2543 7.2725C25.8672 7.50976 26.3049 7.79516 26.7645 8.25391C27.2241 8.71353 27.5087 9.15127 27.7459 9.7641C27.9263 10.2272 28.1399 10.9223 28.1985 12.2023C28.2616 13.5873 28.2747 14.0031 28.2747 17.5094C28.2747 21.0157 28.2616 21.4315 28.1985 22.8165C28.1399 24.0964 27.9271 24.7916 27.7459 25.2547C27.5357 25.8251 27.2004 26.3411 26.7645 26.7649C26.3409 27.2009 25.8248 27.5362 25.2543 27.7463C24.7912 27.9266 24.0961 28.1402 22.8161 28.1989C21.4311 28.2619 21.0162 28.2751 17.509 28.2751C14.0019 28.2751 13.5869 28.2619 12.2019 28.1989C10.922 28.1402 10.2269 27.9275 9.76373 27.7463C9.19332 27.5361 8.67728 27.2008 8.25354 26.7649C7.81771 26.3411 7.48236 25.8251 7.27214 25.2547C7.09179 24.7916 6.87818 24.0964 6.81952 22.8165C6.75649 21.4315 6.74335 21.0157 6.74335 17.5094C6.74335 14.0031 6.75649 13.5873 6.81952 12.2023C6.87818 10.9223 7.09092 10.2272 7.27214 9.7641C7.50939 9.15127 7.79479 8.71353 8.25354 8.25391C8.67722 7.81796 9.19328 7.4826 9.76373 7.2725C10.2269 7.09216 10.922 6.87854 12.2019 6.81989C13.5869 6.75685 14.0028 6.74372 17.509 6.74372Z" fill="black"/>
<path id="vector_2" fill-rule="evenodd" clip-rule="evenodd" d="M17.5097 21.891C16.9342 21.891 16.3644 21.7777 15.8328 21.5575C15.3012 21.3373 14.8182 21.0145 14.4113 20.6076C14.0044 20.2007 13.6817 19.7177 13.4615 19.1861C13.2413 18.6545 13.1279 18.0847 13.1279 17.5093C13.1279 16.9338 13.2413 16.3641 13.4615 15.8324C13.6817 15.3008 14.0044 14.8178 14.4113 14.4109C14.8182 14.004 15.3012 13.6813 15.8328 13.4611C16.3644 13.2409 16.9342 13.1275 17.5097 13.1275C18.6718 13.1275 19.7863 13.5892 20.608 14.4109C21.4297 15.2326 21.8914 16.3472 21.8914 17.5093C21.8914 18.6714 21.4297 19.7859 20.608 20.6076C19.7863 21.4293 18.6718 21.891 17.5097 21.891ZM17.5097 10.7594C15.7195 10.7594 14.0026 11.4705 12.7368 12.7364C11.4709 14.0022 10.7598 15.7191 10.7598 17.5093C10.7598 19.2994 11.4709 21.0163 12.7368 22.2822C14.0026 23.548 15.7195 24.2591 17.5097 24.2591C19.2998 24.2591 21.0167 23.548 22.2825 22.2822C23.5484 21.0163 24.2595 19.2994 24.2595 17.5093C24.2595 15.7191 23.5484 14.0022 22.2825 12.7364C21.0167 11.4705 19.2998 10.7594 17.5097 10.7594ZM26.2232 10.6368C26.2232 11.06 26.0551 11.4658 25.7559 11.765C25.4567 12.0643 25.0508 12.2324 24.6277 12.2324C24.2045 12.2324 23.7987 12.0643 23.4994 11.765C23.2002 11.4658 23.0321 11.06 23.0321 10.6368C23.0321 10.2136 23.2002 9.80781 23.4994 9.50858C23.7987 9.20936 24.2045 9.04126 24.6277 9.04126C25.0508 9.04126 25.4567 9.20936 25.7559 9.50858C26.0551 9.80781 26.2232 10.2136 26.2232 10.6368Z" fill="black"/>
</g>
</svg>
