<svg width="36" height="36" viewBox="0 0 36 36" fill="none" xmlns="http://www.w3.org/2000/svg">
<g id="icon/tripadvisor">
<path id="vector" d="M13.4115 18.9876C13.4115 19.4994 13.2598 19.9996 12.9754 20.4252C12.6911 20.8507 12.287 21.1824 11.8141 21.3782C11.3413 21.5741 10.821 21.6253 10.3191 21.5255C9.81716 21.4256 9.35609 21.1792 8.99421 20.8173C8.63233 20.4554 8.38588 19.9943 8.28604 19.4924C8.18619 18.9905 8.23744 18.4702 8.43329 17.9974C8.62914 17.5245 8.96079 17.1204 9.38632 16.8361C9.81185 16.5517 10.3121 16.4 10.8239 16.4C11.5102 16.4 12.1684 16.6726 12.6536 17.1579C13.1389 17.6431 13.4115 18.3013 13.4115 18.9876ZM25.4086 16.4C24.8969 16.4 24.3966 16.5517 23.9711 16.8361C23.5455 17.1204 23.2139 17.5245 23.018 17.9974C22.8222 18.4702 22.7709 18.9905 22.8708 19.4924C22.9706 19.9943 23.2171 20.4554 23.5789 20.8173C23.9408 21.1792 24.4019 21.4256 24.9038 21.5255C25.4058 21.6253 25.9261 21.5741 26.3989 21.3782C26.8717 21.1824 27.2758 20.8507 27.5602 20.4252C27.8445 19.9996 27.9962 19.4994 27.9962 18.9876C27.9961 18.3017 27.7235 17.6439 27.2386 17.1588C26.7537 16.6738 26.096 16.4011 25.4101 16.4007L25.4086 16.4ZM32.7042 18.9876C32.7042 23.0145 29.4367 26.2792 25.4086 26.2792C23.5712 26.2822 21.801 25.5888 20.4545 24.3385L18.1195 26.879L15.7835 24.3357C14.4371 25.5872 12.6662 26.2818 10.8279 26.2792C6.80271 26.2792 3.53623 23.0145 3.53623 18.9876C3.53486 17.9731 3.74576 16.9696 4.15538 16.0415C4.56499 15.1134 5.16426 14.2812 5.91466 13.5985L3.52832 11.0023H8.83003C11.5713 9.13675 14.8105 8.1391 18.1263 8.1391C21.4422 8.1391 24.6814 9.13675 27.4227 11.0023H32.7107L30.3247 13.5985C31.0754 14.2811 31.6749 15.1132 32.0848 16.0413C32.4947 16.9694 32.7058 17.973 32.7046 18.9876H32.7042ZM15.7605 18.9876C15.7605 18.0116 15.4711 17.0575 14.9288 16.2459C14.3865 15.4344 13.6158 14.8019 12.7141 14.4284C11.8124 14.0549 10.8201 13.9572 9.86286 14.1477C8.9056 14.3381 8.0263 14.8081 7.33618 15.4983C6.64605 16.1885 6.17609 17.0678 5.98572 18.0251C5.79535 18.9824 5.89313 19.9746 6.26668 20.8763C6.64024 21.778 7.2728 22.5487 8.08436 23.0909C8.89593 23.6331 9.85005 23.9224 10.8261 23.9224C11.4741 23.9224 12.1158 23.7948 12.7146 23.5468C13.3133 23.2988 13.8573 22.9353 14.3156 22.4771C14.7738 22.0189 15.1373 21.4748 15.3853 20.8761C15.6333 20.2774 15.7609 19.6356 15.7608 18.9876H15.7605ZM23.5952 11.6201C21.8598 10.8971 19.9985 10.5249 18.1186 10.5249C16.2387 10.5249 14.3774 10.8971 12.6421 11.6201C15.7576 12.8126 18.1195 15.5978 18.1195 18.8453C18.1195 15.5982 20.4811 12.8126 23.5955 11.6205L23.5952 11.6201ZM30.3445 18.9876C30.3445 18.0116 30.0551 17.0575 29.5128 16.2459C28.9706 15.4344 28.1998 14.8019 27.2981 14.4284C26.3964 14.0549 25.4041 13.9572 24.4469 14.1477C23.4896 14.3381 22.6103 14.8081 21.9202 15.4983C21.2301 16.1885 20.7601 17.0678 20.5697 18.0251C20.3794 18.9824 20.4771 19.9746 20.8507 20.8763C21.2242 21.778 21.8568 22.5487 22.6684 23.0909C23.4799 23.6331 24.4341 23.9224 25.4101 23.9224C26.7189 23.9224 27.974 23.4024 28.8995 22.477C29.8249 21.5515 30.3449 20.2964 30.3449 18.9876H30.3445Z" fill="black"/>
</g>
</svg>
