<svg width="34" height="35" viewBox="0 0 34 35" fill="none" xmlns="http://www.w3.org/2000/svg">
<g id="icon/twitter">
<path id="vector" d="M28.3407 11.8041C28.3577 12.0506 28.3577 12.2972 28.3577 12.546C28.3577 20.1275 22.586 28.8714 12.0323 28.8714V28.8668C8.91467 28.8714 5.86182 27.9784 3.2373 26.2946C3.69063 26.3491 4.14623 26.3764 4.60296 26.3775C7.18658 26.3798 9.69635 25.5129 11.7289 23.9166C9.2737 23.87 7.12068 22.2692 6.36855 19.9321C7.22862 20.098 8.11482 20.0639 8.95898 19.8333C6.2822 19.2925 4.35642 16.9406 4.35642 14.2093C4.35642 14.1843 4.35642 14.1604 4.35642 14.1366C5.154 14.5808 6.04702 14.8274 6.96048 14.8546C4.43936 13.1697 3.66223 9.81579 5.18467 7.19355C8.09778 10.7781 12.3959 12.9573 17.0098 13.1879C16.5474 11.1951 17.1791 9.10683 18.6697 7.70595C20.9806 5.53363 24.6152 5.64497 26.7875 7.95477C28.0725 7.70141 29.3041 7.2299 30.4312 6.56185C30.0028 7.89001 29.1064 9.01821 27.9089 9.73513C29.0462 9.60106 30.1574 9.29657 31.2038 8.83188C30.4334 9.98622 29.4632 10.9917 28.3407 11.8041Z" fill="black"/>
</g>
</svg>
