<svg width="36" height="36" viewBox="0 0 36 36" fill="none" xmlns="http://www.w3.org/2000/svg">
<g id="icon/yelp">
<path id="vector" d="M13.7167 21.3307L15.0604 21.0202C15.0887 21.0137 15.1354 21.003 15.1924 20.9846C15.5632 20.8848 15.8809 20.645 16.0787 20.3156C16.2764 19.9862 16.3388 19.593 16.2527 19.2188C16.2508 19.2106 16.249 19.2027 16.2471 19.1945C16.203 19.0152 16.1256 18.8456 16.0191 18.6948C15.8685 18.5037 15.6822 18.3439 15.4705 18.2243C15.2213 18.0821 14.9605 17.9612 14.6908 17.8632L13.2175 17.3253C12.3907 17.018 11.5639 16.7183 10.7293 16.426C10.1881 16.2334 9.72956 16.0644 9.33112 15.9412C9.2559 15.918 9.17295 15.8948 9.10548 15.8715C8.6238 15.7239 8.28536 15.6627 7.99893 15.6607C7.80763 15.6536 7.61707 15.6884 7.44049 15.7625C7.25649 15.8419 7.09122 15.9592 6.95552 16.1068C6.88801 16.1835 6.82455 16.2637 6.76537 16.347C6.70985 16.432 6.65893 16.5197 6.61283 16.6102C6.56207 16.7072 6.51845 16.8076 6.48232 16.9109C6.20886 17.7193 6.07265 18.5676 6.07934 19.4209C6.08427 20.1922 6.10498 21.1822 6.52895 21.8533C6.63112 22.0255 6.76822 22.1744 6.93141 22.2904C7.23345 22.4989 7.53867 22.5264 7.85621 22.5493C8.33074 22.5833 8.79046 22.4667 9.24877 22.3608L13.7129 21.3294L13.7167 21.3307Z" fill="black"/>
<path id="vector_2" d="M28.7098 14.1969C28.3429 13.4269 27.8497 12.7239 27.2506 12.1172C27.1731 12.0402 27.0901 11.9689 27.0022 11.904C26.9211 11.8431 26.8368 11.7865 26.7497 11.7344C26.6602 11.6853 26.5681 11.6411 26.4738 11.6018C26.2874 11.5287 26.0877 11.4957 25.8878 11.505C25.6965 11.5159 25.5099 11.5683 25.3409 11.6586C25.0846 11.786 24.8073 11.9907 24.4385 12.3336C24.3875 12.3842 24.3235 12.4413 24.266 12.4952C23.9617 12.7813 23.6232 13.134 23.2204 13.5447C22.5982 14.1735 21.9853 14.8058 21.3763 15.445L20.2866 16.575C20.0871 16.7815 19.9054 17.0046 19.7435 17.2418C19.6056 17.4422 19.5079 17.6676 19.4561 17.9055C19.4262 18.0877 19.4306 18.2741 19.4691 18.4548C19.4709 18.463 19.4728 18.4708 19.4746 18.479C19.5608 18.8534 19.7886 19.1795 20.1104 19.3888C20.4321 19.5982 20.8224 19.6745 21.1994 19.6014C21.2591 19.5928 21.3054 19.5825 21.3336 19.5756L27.1436 18.2332C27.6015 18.1273 28.0661 18.0304 28.4775 17.7916C28.7534 17.6316 29.0158 17.473 29.1959 17.1531C29.292 16.9773 29.3502 16.7832 29.3668 16.5836C29.4558 15.7918 29.0425 14.8925 28.7098 14.1969Z" fill="black"/>
<path id="vector_3" d="M18.3103 16.6396C18.7313 16.1107 18.7303 15.3224 18.7679 14.6778C18.8947 12.5244 19.0281 10.3707 19.1339 8.21612C19.1742 7.40002 19.2621 6.59498 19.2136 5.77267C19.1736 5.0943 19.1687 4.31544 18.7404 3.75873C17.9843 2.77702 16.3722 2.85771 15.2722 3.00999C14.9353 3.05676 14.5977 3.11965 14.2629 3.20003C13.9281 3.28041 13.5967 3.3682 13.2724 3.47204C12.217 3.81777 10.7331 4.4524 10.4819 5.66857C10.3402 6.35611 10.6759 7.05942 10.9363 7.68687C11.2519 8.44746 11.683 9.13259 12.0759 9.84857C13.1147 11.7387 14.1728 13.6171 15.2279 15.4975C15.543 16.0588 15.8864 16.7698 16.496 17.0606C16.5363 17.0782 16.5775 17.0938 16.6194 17.1072C16.8927 17.2107 17.1907 17.2307 17.4755 17.1645C17.4927 17.1605 17.5095 17.1567 17.5263 17.1527C17.7893 17.0812 18.0274 16.9383 18.2142 16.7396C18.248 16.7079 18.28 16.6746 18.3103 16.6396Z" fill="black"/>
<path id="vector_4" d="M17.807 22.4051C17.6426 22.174 17.4094 22.0008 17.1407 21.9102C16.8719 21.8197 16.5814 21.8164 16.3106 21.9011C16.247 21.9221 16.185 21.9479 16.1251 21.978C16.0325 22.0251 15.9442 22.0802 15.861 22.1427C15.6189 22.322 15.415 22.5551 15.2293 22.7889C15.1822 22.8485 15.1393 22.9279 15.0832 22.9788L14.1487 24.2644C13.619 24.9845 13.0966 25.7064 12.5786 26.4399C12.2407 26.9134 11.9483 27.3133 11.7174 27.6671C11.6736 27.7337 11.6282 27.8081 11.5866 27.8674C11.3098 28.2956 11.1531 28.6081 11.0726 28.8865C11.0122 29.0715 10.9931 29.2675 11.0166 29.4606C11.0423 29.6618 11.1101 29.8552 11.2154 30.0284C11.2714 30.1153 11.3318 30.1993 11.3963 30.2801C11.4633 30.3579 11.5344 30.4319 11.6095 30.5019C11.6896 30.5783 11.7753 30.6487 11.8658 30.7125C12.5109 31.1613 13.217 31.4837 13.9598 31.7328C14.5779 31.938 15.2204 32.0608 15.8706 32.098C15.9813 32.1037 16.0921 32.1012 16.2024 32.0909C16.3046 32.082 16.4063 32.0677 16.5071 32.0481C16.6077 32.0247 16.7071 31.9957 16.8047 31.9617C16.9946 31.8906 17.1675 31.7806 17.3122 31.6386C17.4493 31.5013 17.5547 31.3359 17.6213 31.1536C17.7293 30.8843 17.8003 30.5424 17.847 30.0349C17.8512 29.9628 17.8614 29.8762 17.8686 29.7968C17.9055 29.3757 17.9224 28.8811 17.9495 28.2994C17.9952 27.4049 18.031 26.5143 18.0594 25.6212C18.0594 25.6212 18.1195 24.0341 18.1194 24.0332C18.1331 23.6674 18.1219 23.2621 18.0204 22.898C17.9759 22.7234 17.9038 22.5571 17.807 22.4051Z" fill="black"/>
<path id="vector_5" d="M28.356 24.8906C28.1609 24.6767 27.8845 24.4634 27.4487 24.1998C27.3858 24.1647 27.312 24.1178 27.244 24.077C26.881 23.8588 26.4438 23.6291 25.9332 23.3518C25.1486 22.9211 24.3635 22.5012 23.571 22.0847L22.1708 21.3422C22.0983 21.3208 22.0245 21.2684 21.9561 21.2355C21.6871 21.1068 21.4019 20.9867 21.1059 20.9317C21.0038 20.9121 20.9003 20.9014 20.7965 20.8995C20.7294 20.8987 20.6626 20.9028 20.5961 20.9117C20.3162 20.9551 20.057 21.0858 19.8555 21.2852C19.6541 21.4846 19.5206 21.7424 19.4742 22.0221C19.4529 22.2 19.4593 22.3801 19.4935 22.556C19.5619 22.9286 19.7283 23.2971 19.9004 23.62L20.6482 25.0214C21.0642 25.8117 21.4853 26.5976 21.9171 27.381C22.1954 27.8919 22.4272 28.3293 22.6443 28.6917C22.6855 28.7599 22.7321 28.8332 22.7673 28.8964C23.0315 29.3321 23.2438 29.6064 23.459 29.8031C23.5984 29.9377 23.7656 30.0402 23.9487 30.1034C24.1411 30.1672 24.345 30.1899 24.5467 30.1699C24.6494 30.1577 24.7514 30.1401 24.8521 30.1169C24.9514 30.0903 25.0492 30.0586 25.145 30.0216C25.2487 29.9827 25.3493 29.9363 25.446 29.8826C26.0146 29.5639 26.5385 29.1716 27.0046 28.7158C27.5634 28.1658 28.0574 27.5662 28.4417 26.8796C28.4952 26.7824 28.5414 26.6815 28.5801 26.5778C28.6164 26.4817 28.6478 26.3838 28.6741 26.2846C28.6968 26.1837 28.7142 26.0816 28.7263 25.9791C28.7455 25.7773 28.722 25.574 28.6576 25.3819C28.5942 25.1981 28.4912 25.0302 28.356 24.8906Z" fill="black"/>
</g>
</svg>
