<svg width="69" height="12" viewBox="0 0 69 12" fill="none" xmlns="http://www.w3.org/2000/svg">
<g id="Find us on">
<path d="M2.42311 11.7374V6.99372H7.22438V5.57839H2.42311V2.28114H7.37926V0.850259H0.796875V11.7374H2.42311Z" fill="white"/>
<path d="M9.64691 2.70107C10.158 2.70107 10.5607 2.28114 10.5607 1.75234C10.5607 1.23909 10.158 0.819153 9.64691 0.819153C9.12032 0.819153 8.70215 1.23909 8.70215 1.75234C8.70215 2.28114 9.12032 2.70107 9.64691 2.70107ZM10.4213 3.80534H8.85702V11.7374H10.4213V3.80534Z" fill="white"/>
<path d="M18.8656 6.66711C18.8656 4.97182 17.6421 3.63426 15.83 3.63426C14.8852 3.63426 14.0644 4.02309 13.5068 4.67632V3.80534H11.9425V11.7374H13.5068V7.02483C13.5068 5.8428 14.3122 5.04959 15.4428 5.04959C16.5579 5.04959 17.3013 5.82724 17.3013 6.97817V11.7374H18.8656V6.66711Z" fill="white"/>
<path d="M28.6063 11.7374V0.850259H27.0421V4.80074C26.3296 4.06975 25.3384 3.63426 24.2542 3.63426C21.931 3.63426 20.088 5.48507 20.088 7.78693C20.088 10.0732 21.9155 11.924 24.2542 11.924C25.3539 11.924 26.3451 11.473 27.0576 10.742V11.7374H28.6063ZM27.073 7.78693C27.073 9.31113 25.865 10.5398 24.3626 10.5398C22.8603 10.5398 21.6523 9.31113 21.6523 7.78693C21.6523 6.24718 22.8603 5.03404 24.3626 5.03404C25.865 5.03404 27.073 6.24718 27.073 7.78693Z" fill="white"/>
<path d="M33.2233 8.87564C33.2233 10.5709 34.4469 11.8929 36.259 11.8929C37.2037 11.8929 38.0401 11.5041 38.5822 10.8509V11.7374H40.1464V3.80534H38.5822V8.51792C38.5822 9.6844 37.7768 10.5087 36.6462 10.5087C35.531 10.5087 34.7876 9.68441 34.7876 8.58014V3.80534H33.2233V8.87564Z" fill="white"/>
<path d="M44.6367 11.9085C46.4024 11.9085 47.533 10.882 47.533 9.51332C47.533 8.37795 46.8051 7.61585 45.3492 7.24257L43.9862 6.88485C43.2428 6.69822 42.8556 6.35605 42.8556 5.85835C42.8556 5.29844 43.3048 4.89406 44.0637 4.89406C44.8691 4.89406 45.6589 5.36065 45.8448 6.26273H47.3471C47.1303 4.76963 45.9222 3.63426 44.0792 3.63426C42.4839 3.63426 41.3223 4.56744 41.3223 6.01388C41.3223 7.14925 42.0503 7.8958 43.4597 8.25352L44.9155 8.61124C45.6589 8.81343 45.9997 9.1556 45.9997 9.63775C45.9997 10.2443 45.4731 10.6487 44.6213 10.6487C43.6455 10.6487 42.8711 10.1821 42.6853 9.28002H41.1829C41.4617 10.7887 42.7162 11.9085 44.6367 11.9085Z" fill="white"/>
<path d="M59.9143 7.77138C59.9143 5.48507 58.0247 3.63426 55.6706 3.63426C53.3164 3.63426 51.4269 5.48507 51.4269 7.77138C51.4269 10.0577 53.3164 11.924 55.6706 11.924C58.0247 11.924 59.9143 10.0577 59.9143 7.77138ZM58.35 7.77138C58.35 9.31113 57.1574 10.5243 55.6706 10.5243C54.1837 10.5243 52.9912 9.31113 52.9912 7.77138C52.9912 6.24718 54.1837 5.03404 55.6706 5.03404C57.1574 5.03404 58.35 6.24718 58.35 7.77138Z" fill="white"/>
<path d="M68.0671 6.66711C68.0671 4.97182 66.8436 3.63426 65.0315 3.63426C64.0867 3.63426 63.2658 4.02309 62.7083 4.67632V3.80534H61.144V11.7374H62.7083V7.02483C62.7083 5.8428 63.5137 5.04959 64.6443 5.04959C65.7594 5.04959 66.5028 5.82724 66.5028 6.97817V11.7374H68.0671V6.66711Z" fill="white"/>
</g>
</svg>
