<svg width="78" height="26" viewBox="0 0 78 26" fill="none" xmlns="http://www.w3.org/2000/svg">
<g id="Uber">
<path d="M4.25158 15.7104V0.0328979H0.457031V15.9281C0.457031 21.9161 4.61297 25.8717 10.0338 25.8717C12.6719 25.8717 15.0209 24.8556 16.7194 23.0774V25.4363H20.4778V0.0328979H16.6832V15.7104C16.6832 19.7386 13.9729 22.4604 10.4674 22.4604C6.92583 22.4604 4.25158 19.8112 4.25158 15.7104Z" fill="white"/>
<path d="M24.2083 25.4363H27.8221V23.1137C29.4845 24.8193 31.8335 25.8717 34.3993 25.8717C39.8201 25.8717 44.0845 21.5532 44.0845 16.2185C44.0845 10.8475 39.8201 6.5289 34.3993 6.5289C31.8335 6.5289 29.5206 7.58132 27.8583 9.28698V0.0328979H24.2083V25.4363ZM27.786 16.2185C27.786 12.6257 30.6409 9.79504 34.1464 9.79504C37.6157 9.79504 40.4706 12.6257 40.4706 16.2185C40.4706 19.7749 37.6157 22.6419 34.1464 22.6419C30.6048 22.6419 27.786 19.7749 27.786 16.2185Z" fill="white"/>
<path d="M46.2494 16.1822C46.2494 21.6983 50.5137 25.8354 56.0429 25.8354C59.4038 25.8354 62.1504 24.3475 63.9934 21.8798L61.3553 19.9201C59.982 21.7709 58.1751 22.6419 56.0429 22.6419C52.935 22.6419 50.4415 20.3919 49.9355 17.3798H64.933V16.1822C64.933 10.666 61.0301 6.56519 55.7177 6.56519C50.333 6.56519 46.2494 10.9563 46.2494 16.1822ZM55.6454 9.75875C58.3558 9.75875 60.6325 11.6459 61.2469 14.4765H50.0078C50.6583 11.6459 52.935 9.75875 55.6454 9.75875Z" fill="white"/>
<path d="M77.081 10.1942V6.78293H75.8161C73.7923 6.78293 72.3107 7.72648 71.4072 9.2144V6.92809H67.7933V25.4363H71.4433V14.912C71.4433 12.0451 73.178 10.1942 75.5631 10.1942H77.081Z" fill="white"/>
</g>
</svg>
